<?xml version="1.0" standalone="no"?><!DOCTYPE svg PUBLIC "-//W3C//DTD SVG 1.1//EN" "http://www.w3.org/Graphics/SVG/1.1/DTD/svg11.dtd"><svg t="1588643711996" class="icon" viewBox="0 0 1024 1024" version="1.1" xmlns="http://www.w3.org/2000/svg" p-id="4571" xmlns:xlink="http://www.w3.org/1999/xlink" width="32" height="32"><defs><style type="text/css"></style></defs><path d="M512 1024C229.649067 1024 0 794.350933 0 512 0 229.649067 229.649067 0 512 0s512 229.649067 512 512C1024 794.350933 794.350933 1024 512 1024zM512 22.755556c-269.789867 0-489.244444 219.454578-489.244444 489.244444C22.755556 781.698844 242.210133 1001.244444 512 1001.244444S1001.244444 781.698844 1001.244444 512C1001.244444 242.210133 781.789867 22.755556 512 22.755556z" p-id="4572"></path><path d="M710.974578 841.955556 400.952889 841.955556 396.947911 838.587733 257.410844 699.232711C223.6416 665.281422 216.541867 617.494756 241.481956 592.554667c24.120889-24.211911 67.1744-23.483733 92.114489 1.365333l19.296711 19.296711L352.893156 332.777244c0-37.501156 28.672-67.902578 64.079644-67.902578s64.170667 30.401422 64.170667 67.902578l0 118.419911C492.3392 442.550044 506.720711 437.361778 522.467556 437.361778c25.213156 0 47.149511 13.380267 57.617067 32.950044C591.826489 459.753244 608.938667 453.108622 627.962311 453.108622c25.213156 0 47.149511 11.650844 57.526044 28.580978 11.650844-8.920178 28.672-14.472533 47.877689-14.472533 35.407644 0 64.079644 30.401422 64.079644 67.811556l0 220.273778C797.536711 803.089067 758.670222 841.955556 710.974578 841.955556zM409.691022 819.2l301.283556 0c35.2256 0 63.806578-28.580978 63.806578-63.806578l0-220.273778c0-24.849067-18.568533-45.056-41.324089-45.056-23.665778 0-41.324089 11.195733-41.324089 21.117156l0 32.585956-22.755556 0L669.377422 504.081067c0-15.291733-18.932622-28.307911-41.324089-28.307911S586.638222 488.789333 586.638222 504.081067l0 39.685689-22.755556 0L563.882667 496.253156c0-19.933867-18.568533-36.135822-41.415111-36.135822-22.755556 0-41.324089 16.201956-41.324089 36.135822l0 47.422578-22.755556 0L458.387911 332.777244c0-24.849067-18.568533-45.147022-41.415111-45.147022-22.755556 0-41.324089 20.297956-41.324089 45.147022L375.648711 668.103111 317.485511 610.121956c-16.384-16.384-44.2368-17.021156-59.983644-1.365333C241.755022 624.503467 249.0368 658.545778 273.521778 683.121778L409.691022 819.2z" p-id="4573"></path><path d="M555.4176 331.684978l-22.755556 0L532.662044 320.398222c0-63.806578-51.882667-115.689244-115.689244-115.689244S301.374578 256.591644 301.374578 320.398222l0 11.286756-22.755556 0L278.619022 320.398222c0-76.276622 62.077156-138.4448 138.4448-138.4448S555.4176 244.030578 555.4176 320.398222L555.4176 331.684978z" p-id="4574"></path></svg>