<?xml version="1.0" standalone="no"?><!DOCTYPE svg PUBLIC "-//W3C//DTD SVG 1.1//EN" "http://www.w3.org/Graphics/SVG/1.1/DTD/svg11.dtd"><svg t="1588640291907" class="icon" viewBox="0 0 1024 1024" version="1.1" xmlns="http://www.w3.org/2000/svg" p-id="3690" xmlns:xlink="http://www.w3.org/1999/xlink" width="32" height="32"><defs><style type="text/css"></style></defs><path d="M512 0C229.7 0 0 229.7 0 512s229.7 512 512 512 512-229.7 512-512S794.3 0 512 0z m0 960C265 960 64 759 64 512S265 64 512 64s448 201 448 448-201 448-448 448z m86.6-662.6c-12.5-12.5-32.7-12.5-45.2 0s-12.5 32.7 0 45.2L690.8 480H256c-17.7 0-32 14.3-32 32s14.3 32 32 32h434.8L553.4 681.4c-12.5 12.5-12.5 32.8 0 45.2 6.2 6.2 14.4 9.4 22.6 9.4s16.4-3.1 22.6-9.4l192-192c12.5-12.5 12.5-32.7 0-45.2l-192-192z" p-id="3691"></path></svg>